<svg width="215" height="162" viewBox="0 0 215 162" fill="none" xmlns="http://www.w3.org/2000/svg">
<g clip-path="url(#clip0)">
<path fill-rule="evenodd" clip-rule="evenodd" d="M33 63V63.0039V125.996C50.1664 125.729 64 111.73 64 94.5C64 91.6512 63.6218 88.8908 62.913 86.2661C73.3085 83.6323 81 74.2144 81 63C81 49.7452 70.2548 39 57 39C43.7452 39 33 49.7452 33 63ZM52.5 77C57.7467 77 62 72.7467 62 67.5C62 62.2533 57.7467 58 52.5 58C47.2533 58 43 62.2533 43 67.5C43 72.7467 47.2533 77 52.5 77Z" fill="white"/>
<path d="M102.564 72.7852L105.43 72.293V58.7051L102.564 58.2129V55.9805H108.893V72.293L111.758 72.7852V75H102.564V72.7852ZM108.893 51.1113H105.43V47.5781H108.893V51.1113ZM119.739 51.3926V55.9805H123.342V58.5469H119.739V70.0957C119.739 70.9863 119.921 71.6133 120.284 71.9766C120.659 72.3398 121.151 72.5215 121.76 72.5215C122.065 72.5215 122.405 72.498 122.78 72.4512C123.167 72.3926 123.489 72.334 123.747 72.2754L124.221 74.6484C123.893 74.8594 123.413 75.0293 122.78 75.1582C122.147 75.2988 121.514 75.3691 120.882 75.3691C119.475 75.3691 118.356 74.9473 117.524 74.1035C116.692 73.248 116.276 71.9121 116.276 70.0957V58.5469H113.27V55.9805H116.276V51.3926H119.739ZM130.515 50.8125C130.515 51.9844 130.228 53.1973 129.654 54.4512C129.091 55.7051 128.324 56.7363 127.351 57.5449L125.382 56.2441C125.933 55.4121 126.349 54.5625 126.63 53.6953C126.912 52.8164 127.052 51.873 127.052 50.8652V47.5781H130.515V50.8125ZM145.932 61.957H143.33L142.768 59.6719C142.346 59.2734 141.813 58.957 141.168 58.7227C140.535 58.4766 139.815 58.3535 139.006 58.3535C137.776 58.3535 136.861 58.623 136.264 59.1621C135.666 59.7012 135.367 60.3516 135.367 61.1133C135.367 61.8633 135.631 62.4551 136.158 62.8887C136.686 63.3223 137.758 63.709 139.375 64.0488C141.778 64.5645 143.565 65.2676 144.736 66.1582C145.908 67.0371 146.494 68.2207 146.494 69.709C146.494 71.3965 145.809 72.7617 144.438 73.8047C143.078 74.8477 141.297 75.3691 139.094 75.3691C137.653 75.3691 136.358 75.2051 135.209 74.877C134.061 74.5371 133.035 74.0508 132.133 73.418L132.115 69.0762H134.717L135.367 71.625C135.766 71.9883 136.305 72.252 136.985 72.416C137.676 72.5801 138.379 72.6621 139.094 72.6621C140.324 72.6621 141.285 72.416 141.977 71.9238C142.68 71.4199 143.031 70.7637 143.031 69.9551C143.031 69.1934 142.738 68.5664 142.153 68.0742C141.578 67.582 140.483 67.1543 138.865 66.791C136.557 66.2871 134.817 65.6016 133.645 64.7344C132.473 63.8672 131.887 62.6953 131.887 61.2188C131.887 59.6719 132.543 58.3535 133.856 57.2637C135.18 56.1738 136.897 55.6289 139.006 55.6289C140.447 55.6289 141.742 55.8164 142.891 56.1914C144.039 56.5664 144.994 57.0879 145.756 57.7559L145.932 61.957ZM169.664 75C169.558 74.4844 169.476 74.0215 169.418 73.6113C169.359 73.2012 169.318 72.791 169.295 72.3809C168.627 73.2363 167.789 73.9512 166.781 74.5254C165.785 75.0879 164.718 75.3691 163.582 75.3691C161.601 75.3691 160.095 74.8887 159.064 73.9277C158.033 72.9551 157.517 71.5898 157.517 69.832C157.517 68.0273 158.244 66.6387 159.697 65.666C161.162 64.6816 163.166 64.1895 165.709 64.1895H169.277V61.9746C169.277 60.8613 168.925 59.9824 168.222 59.3379C167.519 58.6816 166.541 58.3535 165.287 58.3535C164.42 58.3535 163.652 58.4648 162.984 58.6875C162.328 58.9102 161.795 59.2148 161.384 59.6016L161.015 61.6055H158.343V57.9141C159.211 57.2227 160.259 56.6719 161.49 56.2617C162.72 55.8398 164.056 55.6289 165.498 55.6289C167.654 55.6289 169.4 56.1797 170.736 57.2812C172.072 58.3828 172.74 59.959 172.74 62.0098V71.168C172.74 71.4141 172.74 71.6543 172.74 71.8887C172.752 72.123 172.769 72.3574 172.793 72.5918L174.199 72.7852V75H169.664ZM164.091 72.4688C165.24 72.4688 166.289 72.1934 167.238 71.6426C168.187 71.0918 168.867 70.4297 169.277 69.6562V66.5273H165.586C164.168 66.5273 163.043 66.8555 162.211 67.5117C161.39 68.168 160.98 68.9648 160.98 69.9023C160.98 70.7344 161.238 71.373 161.754 71.8184C162.269 72.252 163.048 72.4688 164.091 72.4688ZM119.967 110.211C119.967 112.953 119.305 115.168 117.98 116.855C116.668 118.531 114.857 119.369 112.549 119.369C111.307 119.369 110.229 119.135 109.314 118.666C108.4 118.186 107.639 117.482 107.029 116.557L106.713 119H103.725V94.3027L100.859 93.8105V91.5781H107.188V102.23C107.785 101.387 108.523 100.742 109.402 100.297C110.293 99.8516 111.33 99.6289 112.514 99.6289C114.857 99.6289 116.686 100.566 117.998 102.441C119.311 104.316 119.967 106.783 119.967 109.842V110.211ZM116.486 109.842C116.486 107.65 116.088 105.869 115.291 104.498C114.494 103.127 113.275 102.441 111.635 102.441C110.568 102.441 109.666 102.699 108.928 103.215C108.201 103.73 107.621 104.422 107.188 105.289V113.691C107.621 114.57 108.207 115.268 108.945 115.783C109.695 116.299 110.604 116.557 111.67 116.557C113.299 116.557 114.506 115.977 115.291 114.816C116.088 113.656 116.486 112.121 116.486 110.211V109.842ZM123.482 93.8105V91.5781H129.81V116.293L132.675 116.785V119H123.482V116.785L126.347 116.293V94.3027L123.482 93.8105ZM135.698 109.314C135.698 106.502 136.46 104.188 137.983 102.371C139.506 100.543 141.575 99.6289 144.188 99.6289C146.813 99.6289 148.887 100.537 150.411 102.354C151.946 104.17 152.713 106.49 152.713 109.314V109.701C152.713 112.537 151.952 114.857 150.428 116.662C148.905 118.467 146.836 119.369 144.223 119.369C141.586 119.369 139.506 118.467 137.983 116.662C136.46 114.846 135.698 112.525 135.698 109.701V109.314ZM139.161 109.701C139.161 111.717 139.583 113.381 140.426 114.693C141.282 116.006 142.547 116.662 144.223 116.662C145.864 116.662 147.112 116.006 147.967 114.693C148.823 113.381 149.251 111.717 149.251 109.701V109.314C149.251 107.322 148.823 105.664 147.967 104.34C147.112 103.016 145.852 102.354 144.188 102.354C142.524 102.354 141.27 103.016 140.426 104.34C139.583 105.664 139.161 107.322 139.161 109.314V109.701ZM156.633 109.842C156.633 106.783 157.301 104.316 158.637 102.441C159.972 100.566 161.818 99.6289 164.174 99.6289C165.369 99.6289 166.418 99.8633 167.32 100.332C168.222 100.801 168.978 101.48 169.588 102.371L169.904 99.9805H172.822V118.754C172.822 121.215 172.137 123.148 170.765 124.555C169.394 125.973 167.443 126.682 164.912 126.682C163.998 126.682 163.008 126.553 161.941 126.295C160.875 126.049 159.937 125.709 159.129 125.275L160.025 122.586C160.67 122.926 161.431 123.207 162.31 123.43C163.189 123.652 164.045 123.764 164.877 123.764C166.424 123.764 167.555 123.33 168.269 122.463C168.996 121.596 169.359 120.359 169.359 118.754V116.943C168.738 117.74 167.994 118.344 167.127 118.754C166.26 119.164 165.264 119.369 164.139 119.369C161.806 119.369 159.972 118.525 158.637 116.838C157.301 115.15 156.633 112.941 156.633 110.211V109.842ZM160.096 110.211C160.096 112.121 160.5 113.656 161.308 114.816C162.117 115.977 163.347 116.557 165 116.557C166.043 116.557 166.916 116.322 167.619 115.854C168.322 115.373 168.902 114.699 169.359 113.832V105.078C168.914 104.27 168.334 103.631 167.619 103.162C166.904 102.682 166.043 102.441 165.035 102.441C163.383 102.441 162.146 103.133 161.326 104.516C160.506 105.898 160.096 107.674 160.096 109.842V110.211Z" fill="white"/>
</g>
<defs>
<clipPath id="clip0">
<rect width="215" height="162" fill="white"/>
</clipPath>
</defs>
</svg>
